<mxfile host="app.diagrams.net" agent="Mozilla/5.0 (Windows NT 10.0; Win64; x64) AppleWebKit/537.36 (KHTML, like Gecko) Chrome/131.0.0.0 Safari/537.36" version="25.0.3">
  <diagram name="Page-1" id="TCuosOfil4H2SIOo5u4q">
    <mxGraphModel dx="1434" dy="746" grid="1" gridSize="10" guides="1" tooltips="1" connect="1" arrows="1" fold="1" page="1" pageScale="1" pageWidth="850" pageHeight="1100" math="0" shadow="0">
      <root>
        <mxCell id="0" />
        <mxCell id="1" parent="0" />
        <mxCell id="3tHCoVsbPijlAQehsjFj-8" style="edgeStyle=orthogonalEdgeStyle;rounded=0;orthogonalLoop=1;jettySize=auto;html=1;entryX=0.5;entryY=0;entryDx=0;entryDy=0;" parent="1" source="3tHCoVsbPijlAQehsjFj-1" target="3tHCoVsbPijlAQehsjFj-4" edge="1">
          <mxGeometry relative="1" as="geometry" />
        </mxCell>
        <mxCell id="3tHCoVsbPijlAQehsjFj-1" value="&lt;font style=&quot;font-size: 24px;&quot;&gt;start&lt;/font&gt;" style="strokeWidth=2;html=1;shape=mxgraph.flowchart.start_1;whiteSpace=wrap;" parent="1" vertex="1">
          <mxGeometry x="375" y="40" width="100" height="60" as="geometry" />
        </mxCell>
        <mxCell id="3tHCoVsbPijlAQehsjFj-3" value="&lt;font style=&quot;font-size: 24px;&quot;&gt;end&lt;/font&gt;" style="strokeWidth=2;html=1;shape=mxgraph.flowchart.start_1;whiteSpace=wrap;" parent="1" vertex="1">
          <mxGeometry x="375" y="920" width="100" height="60" as="geometry" />
        </mxCell>
        <mxCell id="3tHCoVsbPijlAQehsjFj-9" style="edgeStyle=orthogonalEdgeStyle;rounded=0;orthogonalLoop=1;jettySize=auto;html=1;" parent="1" source="3tHCoVsbPijlAQehsjFj-4" target="3tHCoVsbPijlAQehsjFj-7" edge="1">
          <mxGeometry relative="1" as="geometry" />
        </mxCell>
        <mxCell id="3tHCoVsbPijlAQehsjFj-4" value="input name1, age1" style="shape=parallelogram;html=1;strokeWidth=2;perimeter=parallelogramPerimeter;whiteSpace=wrap;rounded=1;arcSize=12;size=0.23;" parent="1" vertex="1">
          <mxGeometry x="350" y="170" width="150" height="60" as="geometry" />
        </mxCell>
        <mxCell id="3tHCoVsbPijlAQehsjFj-14" style="edgeStyle=orthogonalEdgeStyle;rounded=0;orthogonalLoop=1;jettySize=auto;html=1;entryX=0.5;entryY=0;entryDx=0;entryDy=0;" parent="1" source="3tHCoVsbPijlAQehsjFj-7" target="3tHCoVsbPijlAQehsjFj-12" edge="1">
          <mxGeometry relative="1" as="geometry" />
        </mxCell>
        <mxCell id="3tHCoVsbPijlAQehsjFj-7" value="input name2, age2" style="shape=parallelogram;html=1;strokeWidth=2;perimeter=parallelogramPerimeter;whiteSpace=wrap;rounded=1;arcSize=12;size=0.23;" parent="1" vertex="1">
          <mxGeometry x="350" y="330" width="150" height="60" as="geometry" />
        </mxCell>
        <mxCell id="3tHCoVsbPijlAQehsjFj-16" style="edgeStyle=orthogonalEdgeStyle;rounded=0;orthogonalLoop=1;jettySize=auto;html=1;entryX=0.5;entryY=0;entryDx=0;entryDy=0;" parent="1" source="3tHCoVsbPijlAQehsjFj-10" target="3tHCoVsbPijlAQehsjFj-15" edge="1">
          <mxGeometry relative="1" as="geometry" />
        </mxCell>
        <mxCell id="3tHCoVsbPijlAQehsjFj-10" value="temp = age1&lt;br&gt;age1 = age2&lt;br&gt;age2 = temp" style="rounded=1;whiteSpace=wrap;html=1;absoluteArcSize=1;arcSize=14;strokeWidth=2;" parent="1" vertex="1">
          <mxGeometry x="363" y="610" width="125" height="70" as="geometry" />
        </mxCell>
        <mxCell id="3tHCoVsbPijlAQehsjFj-13" style="edgeStyle=orthogonalEdgeStyle;rounded=0;orthogonalLoop=1;jettySize=auto;html=1;entryX=0.5;entryY=0;entryDx=0;entryDy=0;" parent="1" source="3tHCoVsbPijlAQehsjFj-12" target="3tHCoVsbPijlAQehsjFj-10" edge="1">
          <mxGeometry relative="1" as="geometry" />
        </mxCell>
        <mxCell id="3tHCoVsbPijlAQehsjFj-12" value="Display&lt;div&gt;&quot;** RESULT **&quot;&lt;/div&gt;&lt;div&gt;name1 (age1)&lt;/div&gt;&lt;div&gt;name2 (age2)&lt;/div&gt;" style="shape=parallelogram;html=1;strokeWidth=2;perimeter=parallelogramPerimeter;whiteSpace=wrap;rounded=1;arcSize=12;size=0.23;" parent="1" vertex="1">
          <mxGeometry x="350" y="480" width="150" height="60" as="geometry" />
        </mxCell>
        <mxCell id="3tHCoVsbPijlAQehsjFj-15" value="Display&lt;div&gt;&quot;** RESULT **&quot;&lt;/div&gt;&lt;div&gt;name1 (age1)&lt;/div&gt;&lt;div&gt;name2 (age2)&lt;/div&gt;" style="shape=parallelogram;html=1;strokeWidth=2;perimeter=parallelogramPerimeter;whiteSpace=wrap;rounded=1;arcSize=12;size=0.23;" parent="1" vertex="1">
          <mxGeometry x="350" y="770" width="150" height="60" as="geometry" />
        </mxCell>
        <mxCell id="3tHCoVsbPijlAQehsjFj-18" style="edgeStyle=orthogonalEdgeStyle;rounded=0;orthogonalLoop=1;jettySize=auto;html=1;entryX=0.5;entryY=0;entryDx=0;entryDy=0;entryPerimeter=0;" parent="1" source="3tHCoVsbPijlAQehsjFj-15" target="3tHCoVsbPijlAQehsjFj-3" edge="1">
          <mxGeometry relative="1" as="geometry" />
        </mxCell>
      </root>
    </mxGraphModel>
  </diagram>
</mxfile>
